<?xml version="1.0" encoding="UTF-8"?>
<svg version="1.1" viewBox="0 0 1576 1576" width="1280" height="1280" xmlns="http://www.w3.org/2000/svg">
<path transform="translate(0)" d="m0 0h1576v1576h-1576z" fill="#FEFEFE"/>
<path transform="translate(786,637)" d="m0 0 5 2 19 10 24 14 25 14 24 14 27 15 17 10 56 32 25 14 24 14 20 11 10 6 25 14 26 15 23 13 24 14 27 15 17 10 21 12 1 1v168l-23 13-25 14-17 10-25 14-19 11-112 64-25 14-49 28-23 13-26 15-25 14-49 28-19 11-5-1-27-15-24-14-27-15-24-14-18-10-23-13-77-44-23-13-24-14-27-15-26-15-25-14-24-14-25-14-21-12-19-11-2-2v-183l16 8 25 14 21 12 25 14 21 12 23 13 26 15 23 13 28 16 23 13 24 14 27 15 26 15 32 18 28 16 23 13 21 12 18 10 8 5 6-2 25-14 17-10 23-13 26-15 46-26 26-15 23-13 26-15 25-14 19-11h2v-183l-22 13-23 13-21 12-26 15-28 16-25 14-24 14-27 15-24 14-25 14-14 8-1 1h-5l-46-26-21-12-23-13-28-16-23-13-21-12-26-15-23-13-26-15-21-12-2-1 2-4 13-8 25-14 17-10 28-16 23-13 26-15 25-14 70-40 25-14z" fill="#F79424"/>
<path transform="translate(784,271)" d="m0 0 7 1 29 16 19 11 28 16 23 13 49 28 23 13 26 15 25 14 35 20 16 9 28 16 23 13 26 15 23 13 26 15 25 14 11 7v183l-5-1-24-14-27-15-24-14-29-16-17-10-25-14-77-44-25-14-24-14-25-14-35-20-23-13-56-32-22-12-5 1-24 14-25 14-77 44-25 14-17 10-25 14-63 36h-2l-1 185-11-6-27-15-21-12-25-14-42-24-26-15-19-11-5-4v-167l13-8 25-14 17-10 23-13 28-16 25-14 24-14 25-14 24-14 27-15 24-14 27-15 24-14 25-14 24-14 27-15 21-12 23-13z" fill="#F79424"/>
</svg>
